%TF.GenerationSoftware,KiCad,Pcbnew,(5.99.0-1452-gb67f18b39)*%
%TF.CreationDate,2020-07-26T03:51:20-04:00*%
%TF.ProjectId,GoKart,476f4b61-7274-42e6-9b69-6361645f7063,rev?*%
%TF.SameCoordinates,Original*%
%TF.FileFunction,Legend,Top*%
%TF.FilePolarity,Positive*%
%FSLAX46Y46*%
G04 Gerber Fmt 4.6, Leading zero omitted, Abs format (unit mm)*
G04 Created by KiCad (PCBNEW (5.99.0-1452-gb67f18b39)) date 2020-07-26 03:51:20*
%MOMM*%
%LPD*%
G01*
G04 APERTURE LIST*
%ADD10C,0.120000*%
G04 APERTURE END LIST*
D10*
%TO.C,U1*%
X156061600Y-73380000D02*
X156061600Y-74480000D01*
X156331600Y-73380000D02*
X156061600Y-73380000D01*
X156331600Y-71880000D02*
X156331600Y-73380000D01*
X149701600Y-73380000D02*
X149701600Y-76210000D01*
X149431600Y-73380000D02*
X149701600Y-73380000D01*
X149431600Y-71880000D02*
X149431600Y-73380000D01*
%TO.C,Q1*%
X163419600Y-68507200D02*
X163419600Y-67407200D01*
X163149600Y-68507200D02*
X163419600Y-68507200D01*
X163149600Y-70007200D02*
X163149600Y-68507200D01*
X169779600Y-68507200D02*
X169779600Y-65677200D01*
X170049600Y-68507200D02*
X169779600Y-68507200D01*
X170049600Y-70007200D02*
X170049600Y-68507200D01*
%TO.C,C2*%
X156848100Y-75744500D02*
X157223100Y-75744500D01*
X157035600Y-75932000D02*
X157035600Y-75557000D01*
X159530600Y-75127563D02*
X160230600Y-74427563D01*
X157410600Y-75127563D02*
X156710600Y-74427563D01*
X160230600Y-74427563D02*
X160230600Y-71797000D01*
X156710600Y-74427563D02*
X156710600Y-71797000D01*
X156710600Y-71797000D02*
X157410600Y-71797000D01*
X160230600Y-71797000D02*
X159530600Y-71797000D01*
%TO.C,C1*%
X142344700Y-74171100D02*
X142719700Y-74171100D01*
X142532200Y-74358600D02*
X142532200Y-73983600D01*
X145027200Y-73554163D02*
X145727200Y-72854163D01*
X142907200Y-73554163D02*
X142207200Y-72854163D01*
X145727200Y-72854163D02*
X145727200Y-70223600D01*
X142207200Y-72854163D02*
X142207200Y-70223600D01*
X142207200Y-70223600D02*
X142907200Y-70223600D01*
X145727200Y-70223600D02*
X145027200Y-70223600D01*
%TO.C,U1*%
X147833980Y-71671904D02*
X148643504Y-71671904D01*
X148738742Y-71624285D01*
X148786361Y-71576666D01*
X148833980Y-71481428D01*
X148833980Y-71290952D01*
X148786361Y-71195714D01*
X148738742Y-71148095D01*
X148643504Y-71100476D01*
X147833980Y-71100476D01*
X148833980Y-70100476D02*
X148833980Y-70671904D01*
X148833980Y-70386190D02*
X147833980Y-70386190D01*
X147976838Y-70481428D01*
X148072076Y-70576666D01*
X148119695Y-70671904D01*
%TO.C,Q1*%
X171647219Y-71072438D02*
X171599600Y-71167676D01*
X171504361Y-71262914D01*
X171361504Y-71405771D01*
X171313885Y-71501009D01*
X171313885Y-71596247D01*
X171551980Y-71548628D02*
X171504361Y-71643866D01*
X171409123Y-71739104D01*
X171218647Y-71786723D01*
X170885314Y-71786723D01*
X170694838Y-71739104D01*
X170599600Y-71643866D01*
X170551980Y-71548628D01*
X170551980Y-71358152D01*
X170599600Y-71262914D01*
X170694838Y-71167676D01*
X170885314Y-71120057D01*
X171218647Y-71120057D01*
X171409123Y-71167676D01*
X171504361Y-71262914D01*
X171551980Y-71358152D01*
X171551980Y-71548628D01*
X171551980Y-70167676D02*
X171551980Y-70739104D01*
X171551980Y-70453390D02*
X170551980Y-70453390D01*
X170694838Y-70548628D01*
X170790076Y-70643866D01*
X170837695Y-70739104D01*
%TO.C,C2*%
X156127742Y-73723666D02*
X156175361Y-73771285D01*
X156222980Y-73914142D01*
X156222980Y-74009380D01*
X156175361Y-74152238D01*
X156080123Y-74247476D01*
X155984885Y-74295095D01*
X155794409Y-74342714D01*
X155651552Y-74342714D01*
X155461076Y-74295095D01*
X155365838Y-74247476D01*
X155270600Y-74152238D01*
X155222980Y-74009380D01*
X155222980Y-73914142D01*
X155270600Y-73771285D01*
X155318219Y-73723666D01*
X155318219Y-73342714D02*
X155270600Y-73295095D01*
X155222980Y-73199857D01*
X155222980Y-72961761D01*
X155270600Y-72866523D01*
X155318219Y-72818904D01*
X155413457Y-72771285D01*
X155508695Y-72771285D01*
X155651552Y-72818904D01*
X156222980Y-73390333D01*
X156222980Y-72771285D01*
%TO.C,C1*%
X141624342Y-72150266D02*
X141671961Y-72197885D01*
X141719580Y-72340742D01*
X141719580Y-72435980D01*
X141671961Y-72578838D01*
X141576723Y-72674076D01*
X141481485Y-72721695D01*
X141291009Y-72769314D01*
X141148152Y-72769314D01*
X140957676Y-72721695D01*
X140862438Y-72674076D01*
X140767200Y-72578838D01*
X140719580Y-72435980D01*
X140719580Y-72340742D01*
X140767200Y-72197885D01*
X140814819Y-72150266D01*
X141719580Y-71197885D02*
X141719580Y-71769314D01*
X141719580Y-71483600D02*
X140719580Y-71483600D01*
X140862438Y-71578838D01*
X140957676Y-71674076D01*
X141005295Y-71769314D01*
%TD*%
M02*
